<mxfile host="app.diagrams.net" modified="2024-04-29T15:07:05.516Z" agent="Mozilla/5.0 (Windows NT 10.0; Win64; x64) AppleWebKit/537.36 (KHTML, like Gecko) Chrome/124.0.0.0 Safari/537.36" etag="JqBM8PQdPaf6_7zHNT9N" version="24.3.1" type="device">
  <diagram name="Halaman-1" id="FLSVvkMzA7MwRjwGOC-4">
    <mxGraphModel dx="1034" dy="446" grid="1" gridSize="10" guides="1" tooltips="1" connect="1" arrows="1" fold="1" page="1" pageScale="1" pageWidth="827" pageHeight="1169" math="0" shadow="0">
      <root>
        <mxCell id="0" />
        <mxCell id="1" parent="0" />
        <mxCell id="zQnBbh505oqkr_y8pC7l-9" style="edgeStyle=orthogonalEdgeStyle;rounded=0;orthogonalLoop=1;jettySize=auto;html=1;exitX=0.5;exitY=1;exitDx=0;exitDy=0;entryX=0.5;entryY=0;entryDx=0;entryDy=0;" edge="1" parent="1" source="zQnBbh505oqkr_y8pC7l-1" target="zQnBbh505oqkr_y8pC7l-5">
          <mxGeometry relative="1" as="geometry" />
        </mxCell>
        <mxCell id="zQnBbh505oqkr_y8pC7l-1" value="Book" style="swimlane;fontStyle=1;align=center;verticalAlign=top;childLayout=stackLayout;horizontal=1;startSize=26;horizontalStack=0;resizeParent=1;resizeParentMax=0;resizeLast=0;collapsible=1;marginBottom=0;whiteSpace=wrap;html=1;" vertex="1" parent="1">
          <mxGeometry x="320" y="40" width="160" height="118" as="geometry" />
        </mxCell>
        <mxCell id="zQnBbh505oqkr_y8pC7l-2" value="+ title:str&lt;div&gt;+ author:str&lt;/div&gt;&lt;div&gt;+ publisher:str&lt;/div&gt;" style="text;strokeColor=none;fillColor=none;align=left;verticalAlign=top;spacingLeft=4;spacingRight=4;overflow=hidden;rotatable=0;points=[[0,0.5],[1,0.5]];portConstraint=eastwest;whiteSpace=wrap;html=1;" vertex="1" parent="zQnBbh505oqkr_y8pC7l-1">
          <mxGeometry y="26" width="160" height="54" as="geometry" />
        </mxCell>
        <mxCell id="zQnBbh505oqkr_y8pC7l-3" value="" style="line;strokeWidth=1;fillColor=none;align=left;verticalAlign=middle;spacingTop=-1;spacingLeft=3;spacingRight=3;rotatable=0;labelPosition=right;points=[];portConstraint=eastwest;strokeColor=inherit;" vertex="1" parent="zQnBbh505oqkr_y8pC7l-1">
          <mxGeometry y="80" width="160" height="10" as="geometry" />
        </mxCell>
        <mxCell id="zQnBbh505oqkr_y8pC7l-4" value="+ display_info():void" style="text;strokeColor=none;fillColor=none;align=left;verticalAlign=top;spacingLeft=4;spacingRight=4;overflow=hidden;rotatable=0;points=[[0,0.5],[1,0.5]];portConstraint=eastwest;whiteSpace=wrap;html=1;" vertex="1" parent="zQnBbh505oqkr_y8pC7l-1">
          <mxGeometry y="90" width="160" height="28" as="geometry" />
        </mxCell>
        <mxCell id="zQnBbh505oqkr_y8pC7l-5" value="Library" style="swimlane;fontStyle=1;align=center;verticalAlign=top;childLayout=stackLayout;horizontal=1;startSize=26;horizontalStack=0;resizeParent=1;resizeParentMax=0;resizeLast=0;collapsible=1;marginBottom=0;whiteSpace=wrap;html=1;" vertex="1" parent="1">
          <mxGeometry x="305" y="220" width="190" height="140" as="geometry" />
        </mxCell>
        <mxCell id="zQnBbh505oqkr_y8pC7l-6" value="+ books: List [book]" style="text;strokeColor=none;fillColor=none;align=left;verticalAlign=top;spacingLeft=4;spacingRight=4;overflow=hidden;rotatable=0;points=[[0,0.5],[1,0.5]];portConstraint=eastwest;whiteSpace=wrap;html=1;" vertex="1" parent="zQnBbh505oqkr_y8pC7l-5">
          <mxGeometry y="26" width="190" height="24" as="geometry" />
        </mxCell>
        <mxCell id="zQnBbh505oqkr_y8pC7l-7" value="" style="line;strokeWidth=1;fillColor=none;align=left;verticalAlign=middle;spacingTop=-1;spacingLeft=3;spacingRight=3;rotatable=0;labelPosition=right;points=[];portConstraint=eastwest;strokeColor=inherit;" vertex="1" parent="zQnBbh505oqkr_y8pC7l-5">
          <mxGeometry y="50" width="190" height="10" as="geometry" />
        </mxCell>
        <mxCell id="zQnBbh505oqkr_y8pC7l-8" value="+ add_book(book_Book): void&lt;div&gt;+remove_book(book_Book): void&lt;/div&gt;&lt;div&gt;+search_book(book_Book):&lt;br&gt;Book&lt;/div&gt;" style="text;strokeColor=none;fillColor=none;align=left;verticalAlign=top;spacingLeft=4;spacingRight=4;overflow=hidden;rotatable=0;points=[[0,0.5],[1,0.5]];portConstraint=eastwest;whiteSpace=wrap;html=1;" vertex="1" parent="zQnBbh505oqkr_y8pC7l-5">
          <mxGeometry y="60" width="190" height="80" as="geometry" />
        </mxCell>
      </root>
    </mxGraphModel>
  </diagram>
</mxfile>
